<mxfile host="app.diagrams.net" modified="2023-07-17T12:30:00.284Z" agent="Mozilla/5.0 (Macintosh; Intel Mac OS X 10_15_7) AppleWebKit/537.36 (KHTML, like Gecko) Chrome/114.0.0.0 Safari/537.36" version="21.6.2" etag="LbyMJLsPjxQNwmI5N5Pm" type="github">
  <diagram name="Page-1" id="DIcBKWBsxSm-JINl3nFp">
    <mxGraphModel>
      <root>
        <mxCell id="0" />
        <mxCell id="1" parent="0" />
      </root>
    </mxGraphModel>
  </diagram>
</mxfile>
